<svg width="680" height="113" viewBox="0 0 680 113" fill="none" xmlns="http://www.w3.org/2000/svg">
<path d="M614.832 36.5958C607.675 41.5084 602.563 47.9561 599.495 55.9391C597.655 60.8517 596.735 65.7641 596.735 70.6767C596.735 79.0692 599.189 86.8985 604.096 94.165C608.493 100.715 613.784 105.397 619.969 108.212C626.155 111.026 632.212 112.434 638.142 112.434C645.197 112.434 651.843 110.745 658.079 107.368C664.316 103.99 669.326 99.3847 673.109 93.551L656.392 87.1033C654.143 89.6619 651.408 91.6321 648.187 93.0137C644.967 94.3954 641.619 95.0862 638.142 95.0862C635.075 95.0862 632.212 94.5745 629.554 93.551C626.282 92.3229 623.42 90.4549 620.966 87.9475C618.512 85.4401 616.672 82.4977 615.445 79.1203L678.936 77.4317V77.278L679.243 77.4317C679.55 75.2824 679.703 73.0819 679.703 70.8304C679.703 62.4379 677.3 54.6086 672.495 47.3421C668.099 40.8942 662.782 36.2632 656.546 33.4487C650.309 30.6342 644.277 29.2269 638.449 29.2269C629.861 29.2269 621.988 31.6832 614.832 36.5958ZM615.292 63.1544L615.599 62.2334C617.439 57.423 620.455 53.6362 624.647 50.8728C628.839 48.1095 633.439 46.7279 638.449 46.7279C641.516 46.7279 644.379 47.2396 647.037 48.2631C650.309 49.4912 653.146 51.308 655.549 53.713C657.951 56.1182 659.715 58.9072 660.84 62.0798L615.292 63.1544Z" fill="white"/>
<path d="M595.543 48.2062V29.5305L591.599 29.2269C584.319 29.2269 577.544 30.9982 571.274 34.541C564.803 38.1852 559.721 43.0692 556.03 49.1931C552.34 55.3173 550.494 61.9728 550.494 69.1596L550.646 112.443H568.392L568.089 71.8926C568.089 67.4389 569.201 63.4404 571.426 59.8976C573.55 56.2536 576.457 53.3435 580.148 51.1672C583.838 48.9908 587.807 47.9026 592.054 47.9026C592.56 47.9026 593.723 48.0039 595.543 48.2062Z" fill="white"/>
<path d="M392.776 29.2269H375.57V75.825C375.57 81.7716 373.521 86.4621 369.424 89.8966C365.328 93.3314 360.36 95.0487 354.522 95.0487C348.582 95.0487 343.563 93.3314 339.466 89.8966C335.369 86.4621 333.321 81.7716 333.321 75.825V29.2269H316.114V75.825C316.114 83.0018 317.906 89.4097 321.491 95.0487C325.076 100.585 329.787 104.866 335.626 107.89C341.463 110.915 347.762 112.427 354.522 112.427C360.975 112.427 367.274 110.94 373.419 107.967C379.462 104.891 384.25 100.534 387.783 94.8949C391.317 89.256 393.084 82.8994 393.084 75.825L392.776 29.2269Z" fill="white"/>
<path d="M234.268 50.0258C230.537 56.4215 228.671 63.3546 228.671 70.8248C228.671 78.3972 230.562 85.3046 234.345 91.5469C238.025 97.9937 243.06 103.085 249.449 106.82C255.838 110.555 262.764 112.422 270.226 112.422C276.871 112.422 283.005 110.99 288.627 108.125C294.352 105.259 299.157 101.32 303.041 96.3053C306.926 91.2911 309.533 85.6629 310.861 79.4206H292.921C291.183 84.0256 288.244 87.7862 284.104 90.7026C279.964 93.6191 275.338 95.0774 270.226 95.0774C265.729 95.0774 261.691 93.9518 258.113 91.7003C254.432 89.5515 251.494 86.6092 249.296 82.8743C247.098 79.1391 245.999 75.1226 245.999 70.8248C245.999 66.322 247.123 62.2801 249.372 58.6984C251.519 55.0144 254.458 52.0724 258.189 49.8722C261.92 47.6721 265.933 46.5722 270.226 46.5722C275.338 46.5722 279.938 48.0047 284.027 50.8699C288.116 53.7353 291.029 57.4704 292.767 62.0754L310.861 62.2289C309.533 56.0889 306.926 50.4607 303.041 45.344C299.054 40.3298 294.199 36.3901 288.474 33.5249C282.749 30.6595 276.667 29.2269 270.226 29.2269C262.764 29.2269 255.864 31.0689 249.526 34.7528C243.085 38.5391 238 43.6302 234.268 50.0258Z" fill="white"/>
<path d="M419.071 0H399.161V112.274H419.071V0Z" fill="white"/>
<path d="M425.15 0V112.274H445.059V44.7742H458.586L463.297 27.1301H445.059V0H425.15Z" fill="white"/>
<path d="M544.619 29.2269H527.413V75.825C527.413 81.7716 525.364 86.4621 521.267 89.8966C517.171 93.3314 512.203 95.0487 506.365 95.0487C500.425 95.0487 495.406 93.3314 491.309 89.8966C487.212 86.4621 485.164 81.7716 485.164 75.825V29.2269H467.957V75.825C467.957 83.0018 469.75 89.4097 473.334 95.0487C476.919 100.585 481.63 104.866 487.469 107.89C493.307 110.915 499.605 112.427 506.365 112.427C512.818 112.427 519.117 110.94 525.262 107.967C531.305 104.891 536.093 100.534 539.626 94.8949C543.16 89.256 544.927 82.8994 544.927 75.825L544.619 29.2269Z" fill="white"/>
<path d="M112.876 7.55L112.723 72.0533C112.723 79.4252 114.615 86.1315 118.4 92.1723C122.184 98.4179 127.273 103.358 133.665 106.993C140.058 110.628 146.936 112.445 154.3 112.445C161.869 112.445 168.824 110.551 175.166 106.762C181.507 103.077 186.544 98.034 190.278 91.6349C194.011 85.2357 195.878 78.299 195.878 70.8248C195.878 63.3506 194.037 56.3884 190.355 49.9379C186.57 43.5899 181.456 38.5475 175.012 34.8103C168.569 31.0733 161.665 29.2046 154.3 29.2046C145.299 29.2046 137.219 31.8668 130.06 37.1908V16.7647L112.876 7.55ZM134.356 82.4199C132.31 78.8878 131.287 75.0226 131.287 70.8248C131.287 66.627 132.31 62.7363 134.356 59.1528C136.401 55.5693 139.188 52.7537 142.717 50.7058C146.246 48.6582 150.107 47.6343 154.3 47.6343C158.494 47.6343 162.38 48.6582 165.96 50.7058C169.54 52.856 172.353 55.6973 174.399 59.2296C176.444 62.7618 177.467 66.627 177.467 70.8248C177.467 74.9203 176.444 78.7598 174.399 82.3433C172.251 85.9268 169.412 88.7424 165.884 90.7901C162.355 92.8379 158.494 93.8616 154.3 93.8616C150.209 93.8616 146.373 92.8379 142.794 90.7901C139.214 88.7424 136.401 85.9523 134.356 82.4199Z" fill="white"/>
<path d="M87.7729 58.8187C89.974 62.5594 91.0747 66.5818 91.0747 70.8859C91.0747 75.2927 89.9997 79.3409 87.8498 83.0302C85.5975 86.7195 82.603 89.6661 78.8661 91.8694C75.1295 94.0728 71.1112 95.1744 66.8112 95.1744C62.3067 95.1744 58.2627 94.0471 54.6795 91.7925C50.994 89.6403 48.0506 86.694 45.8495 82.9533C43.6484 79.2128 42.5477 75.1903 42.5477 70.8859C42.5477 66.3768 43.6739 62.3286 45.9261 58.7417C48.0761 55.0524 51.0194 52.1061 54.7563 49.9027C58.493 47.6993 62.5113 46.5975 66.8112 46.5975C71.2135 46.5975 75.2575 47.6736 78.943 49.8258C82.6285 52.0804 85.5718 55.0782 87.7729 58.8187ZM91.0747 104.705V112.536H108.274L108.428 69.6563C108.428 62.3798 106.534 55.6161 102.746 49.3646C98.9577 43.2156 93.8644 38.3221 87.4658 34.684C81.0673 31.0459 74.1825 29.2269 66.8112 29.2269C59.3377 29.2269 52.4272 31.0714 46.0798 34.7609C39.6301 38.5526 34.5368 43.6512 30.7999 50.0563C27.0632 56.4617 25.1947 63.4047 25.1947 70.8859C25.1947 78.4698 27.0887 85.3874 30.8767 91.6387C34.5623 98.0952 39.6044 103.194 46.003 106.934C52.4015 110.675 59.3377 112.545 66.8112 112.545C75.6157 112.545 83.7035 109.932 91.0747 104.705Z" fill="white"/>
<path d="M0.98999 0.268444H20.8993V112.544H0.98999V0.268444Z" fill="white"/>
</svg>
